<svg xmlns="http://www.w3.org/2000/svg" width="48.33mm" height="99.213" viewBox="0 0 137 74.4"><title>Element 1</title><g data-name="Ebene 2"><g data-name="Layer 1"><path d="M30.38 65.39l.3 2.9h-.52a2.59 2.59 0 0 0-1-1.71 2.16 2.16 0 0 0-1.42-.45 1 1 0 0 0-1.19 1.12c0 .67.37.89 1.19 1.41l1.12.68c1.27.74 2 1.34 2 2.53 0 1.49-1.19 2.45-2.9 2.45a3.73 3.73 0 0 1-1.27-.22c-.52-.15-.74-.3-.82-.3s-.22.23-.22.45h-.45l-.37-3h.45a5.84 5.84 0 0 0 .74 1.42 2.48 2.48 0 0 0 1.98.83 1.31 1.31 0 0 0 1.41-1.34c0-.81-.6-1.19-1.56-1.78l-1.19-.75a2.29 2.29 0 0 1 1.11-4.39 3.26 3.26 0 0 1 1.12.22c.52.15.74.3.89.3s.23-.22.3-.45h.3zm13.77.15V66a1.05 1.05 0 0 0-1 .75L40.5 74.4h-.44l-1.86-5.21-1.79 5.13H36l-2.2-5.66a14.76 14.76 0 0 0-1-2.23 1.08 1.08 0 0 0-.74-.45H32v-.44h3.35V66a2.79 2.79 0 0 0-.6.08.31.31 0 0 0-.22.3 1.76 1.76 0 0 0 .15.52l1.78 4.76 1.27-3.87-.52-1.12a.84.84 0 0 0-.45-.52 1.17 1.17 0 0 0-.52-.07v-.45h3.43v.52h-.3c-.6 0-.67.23-.67.38a1.85 1.85 0 0 0 .15.52l1.63 4.69 1.42-4.25a3.3 3.3 0 0 0 .15-.89c0-.22-.08-.3-.3-.37a.89.89 0 0 0-.52-.08v-.44h2.9zM48 73.06c0 .3.15.44.45.52a1.47 1.47 0 0 0 .6.15v.44h-3.5v-.44a1.31 1.31 0 0 0 .59-.23c.23-.14.38-.22.38-.52v-6.33c0-.44-.6-.67-1-.74v-.45h3.5v.45c-.45.07-1 .22-1 .74v6.41zm8.57-7.67l.29 2.9h-.52a2.55 2.55 0 0 0-1-1.71 2.31 2.31 0 0 0-1.34-.45 1 1 0 0 0-1.19 1.12c0 .67.37.89 1.19 1.41l1.12.68c1.26.74 2 1.34 2 2.53 0 1.49-1.19 2.45-2.91 2.45a3.72 3.72 0 0 1-1.26-.22c-.52-.15-.75-.3-.9-.3s-.22.23-.22.45h-.44l-.38-3h.45a6.22 6.22 0 0 0 .74 1.42 2.48 2.48 0 0 0 1.94.81 1.34 1.34 0 0 0 1.41-1.34c0-.81-.59-1.19-1.56-1.78l-1.19-.75a2.29 2.29 0 0 1 1.12-4.39 3.25 3.25 0 0 1 1.11.22c.52.15.75.3.9.3s.22-.22.22-.45h.45zm8.19 0l.3 2.9h-.53a2.55 2.55 0 0 0-1-1.71 2.31 2.31 0 0 0-1.42-.45A1 1 0 0 0 61 67.25c0 .67.37.89 1.19 1.41l1.12.68c1.26.74 2 1.34 2 2.53 0 1.49-1.19 2.45-2.91 2.45a3.72 3.72 0 0 1-1.26-.22c-.52-.15-.75-.3-.82-.3s-.22.23-.3.45h-.44l-.38-3h.38a5.84 5.84 0 0 0 .74 1.42 2.48 2.48 0 0 0 1.94.81 1.31 1.31 0 0 0 1.41-1.34c0-.81-.6-1.19-1.56-1.78l-1.19-.75A2.29 2.29 0 0 1 62 65.24a3.26 3.26 0 0 1 1.12.22c.52.15.74.3.89.3s.23-.22.3-.45h.45zM74.08 71h2.68l-1.41-3.42zm1.72-5.58l3.12 7.22a2.67 2.67 0 0 0 .53.89 1.36 1.36 0 0 0 .74.23v.44h-3.28v-.44c.52-.08.82-.08.82-.37a.46.46 0 0 0-.07-.3l-.52-1.27h-3.43l-.37 1a1.68 1.68 0 0 0-.15.52c0 .45.37.45.82.52v.45H71v-.51a1.68 1.68 0 0 0 .82-.3 5.72 5.72 0 0 0 .74-1.41l2.69-6.63h.52zm9.3 1a5.78 5.78 0 0 0-.89.08v3.64h1.49c1.12-.07 1.56-.67 1.56-1.93-.07-1.57-1-1.79-2.16-1.79m4.55 7.74h-2.09L85.7 70.9h-1.49V73c0 .3.22.67 1 .75v.44H81.6v-.44a2.24 2.24 0 0 0 .67-.15.65.65 0 0 0 .45-.6v-6.1c0-.6-.59-.82-1.19-.82v-.45h4.17c1.41 0 3.2 1 3.2 2.61a2.56 2.56 0 0 1-1.79 2.53l1.42 2.31a1.2 1.2 0 0 0 1.12.67v.44zm9.82-8.63h2.61V66c-.67.08-1 .3-1 1v5.58c0 .82.15 1 1 1v.45h-3.5v-.45c.89-.07 1-.29 1-1.19v-5l-3.16 6.71h-.3l-3.05-6.55v4.54a1.78 1.78 0 0 0 .3 1.27 1.48 1.48 0 0 0 .82.29v.45h-3.13v-.45a1.36 1.36 0 0 0 .82-.37 2.2 2.2 0 0 0 .22-1.19V67c0-.37 0-.67-.22-.82s-.37-.15-.75-.22v-.52h2.61l2.76 6.18 3-6zm12.74 0v.52a1.25 1.25 0 0 0-.75.22 4.45 4.45 0 0 0-1 1.19l-1.86 2.83v2.39c0 .59.07.74.22.81s.3.23 1 .23v.52H106v-.44c.75-.07.89-.22 1-.3s.15-.29.15-.89v-2.08l-1.64-2.39c-.6-.82-1-1.34-1.19-1.63a1.42 1.42 0 0 0-.89-.38v-.52h3.72v.52h-.23c-.29 0-.67.08-.67.38a.66.66 0 0 0 .23.44l1.71 2.53 1.63-2.48a1 1 0 0 0 .15-.44c0-.15-.07-.23-.3-.23a2.06 2.06 0 0 0-.52-.07v-.52h3.06z" fill="#010101" data-name="Swiss Army"/><path d="M131.27 51.47l3.57 5.36a3.77 3.77 0 0 0 1.16 1.11 2.45 2.45 0 0 0 1 .37V59h-6v-.68a3.59 3.59 0 0 0 .9-.22c.37-.15.44-.59.15-1l-2.39-3.57L127 57.2c-.52.59 0 1 .59 1.11V59h-4.39v-.68a2.53 2.53 0 0 0 1.8-1.2l3.73-5-3.36-4.92a2.51 2.51 0 0 0-2.22-1.2v-.67h6.11V46c-.6.07-1.64.29-1.19 1.11l2.08 3.13 2.38-3.13c.52-.59.15-1-.67-1.11v-.67h4.39V46a2.78 2.78 0 0 0-1.48.74m-23.38 5.21c0 2.83.89 6 3.72 6s3.65-3.13 3.57-6-.59-5.66-3.57-5.66-3.72 3-3.72 5.73m10.27.23c-.07 3.64-2.53 7.14-6.48 7.14s-6.62-3.2-6.7-7.22c-.07-3.72 2.53-7.3 6.63-7.3s6.63 3.65 6.55 7.38m-17.35 6.77h-.52l-8.71-10.23v8.33a1 1 0 0 0 .6.9 2.78 2.78 0 0 0 1 .29V59H92v-.68a2.06 2.06 0 0 0 .75-.22 1.1 1.1 0 0 0 .82-1v-9.9a2.34 2.34 0 0 0-1.86-1.34v-.67h3.57l7.67 9v-7.12c0-.74-1-1.19-1.57-1.19v-.67H106v.67c-1 .08-1.72.3-1.72 1.12v11.91zm-17.64-1.9c0 .45.22.67.67.9a3.85 3.85 0 0 0 .89.29V59h-5.66v-.68a9 9 0 0 0 1-.29c.38-.23.67-.38.67-.9V47c0-.75-1-1-1.71-1.12v-.67h5.66v.67c-.82.15-1.56.3-1.56 1.19v10zM72.45 46.55c-.15 0-.67.08-1.49.15v5.88h2.38c1.71-.15 2.46-1 2.46-3.12.07-2.61-1.49-2.91-3.35-2.91m7.37 12.36h-3.43l-3-5.14H71v3.35c0 .52.37 1 1.71 1.12l.08.67H67v-.67a2.59 2.59 0 0 0 1-.22 1 1 0 0 0 .67-1v-9.8c0-.89-1-1.26-1.86-1.34v-.67h6.63c2.31 0 5.14 1.56 5.14 4.17a4 4 0 0 1-2.83 4l2.3 3.72a2.16 2.16 0 0 0 1.79 1.05l-.07.74zM53.76 52c-.08 2.83.89 5.95 3.65 5.95s3.64-3.12 3.57-6c-.07-2.75-.52-5.66-3.57-5.66s-3.58 2.87-3.65 5.71m10.24.21c-.07 3.65-2.53 7.15-6.48 7.15s-6.62-3.2-6.7-7.22c-.07-3.73 2.54-7.3 6.63-7.3s6.63 3.57 6.55 7.37m-19.4-5.58v10.42a1.1 1.1 0 0 0 .89 1 4.24 4.24 0 0 0 1 .22V59h-5.84v-.68a5.26 5.26 0 0 0 1-.22 1.05 1.05 0 0 0 .75-1l-.11-10.4h-1.86c-1.12 0-1.42.45-1.64 1a3.76 3.76 0 0 0-.22 1.26h-.82v-3.6h11.39v3.57h-.82a7.48 7.48 0 0 0-.3-1.41 1.28 1.28 0 0 0-1.19-.75H44.6zm-9.31-1.42l.08 3.72h-.75a6.35 6.35 0 0 0-.74-1.78 2.57 2.57 0 0 0-2.31-.9c-3.57 0-3.87 3.58-3.87 5.81s.44 6 4.17 5.88a5.6 5.6 0 0 0 4-2.16l.15-.14.74.59-.07.07a6.23 6.23 0 0 1-5.29 3.13c-4.39 0-6.63-3.94-6.63-7.15 0-2.68 1.64-7.22 5.89-7.22a7.43 7.43 0 0 1 3.87 1l.15-.6h.59zM20.62 57.12c0 .45.23.67.67.9a3.93 3.93 0 0 0 .9.29V59h-5.66v-.68c.3-.07.82-.22 1-.29.37-.23.67-.38.67-.9V47c0-.75-1-1-1.71-1.12v-.67h5.66v.67c-.82.15-1.57.3-1.57 1.19v10zM7.67 55.56L10.8 47c.22-.6 0-1-1.12-1.12v-.74h4.69v.74a1.8 1.8 0 0 0-1.86 1.27L7.89 59.43h-1L1.64 47.07A1.73 1.73 0 0 0 0 46v-.75h5.51V46c-1 .07-1.12.59-1 .89l3.2 8.71z" fill="#010101"/><path d="M57.11 15.58A34.19 34.19 0 0 0 55.4 4.86v-.08c.89-.45 2.68-1.34 4.46-2.31A26 26 0 0 1 65 .24a3.22 3.22 0 0 1 3.5 1.34A3.22 3.22 0 0 1 72 .24a24.14 24.14 0 0 1 5.14 2.23c1.78 1 3.57 1.86 4.46 2.31v.08a34.52 34.52 0 0 0-1.71 10.72 33.81 33.81 0 0 0 1.71 10.27v.08a31.88 31.88 0 0 0-13 8.56h-.1a32.55 32.55 0 0 0-13-8.56v-.08a36.05 36.05 0 0 0 1.64-10.27" fill="#fff"/><path d="M55.62 25.78a32 32 0 0 1 12.88 8.41 32.24 32.24 0 0 1 12.88-8.41 34.52 34.52 0 0 1-1.64-10.2 35.29 35.29 0 0 1 1.72-10.65c-.82-.45-2.54-1.27-4.32-2.23A27 27 0 0 0 72 .46a2.88 2.88 0 0 0-3.28 1.27L68.5 2l-.15-.3A3 3 0 0 0 65.08.39 24.09 24.09 0 0 0 60 2.62c-1.86 1-3.5 1.86-4.32 2.24a37.91 37.91 0 0 1 1.64 10.72 35.16 35.16 0 0 1-1.71 10.2m13 8.78h-.3a32.54 32.54 0 0 0-12.91-8.48h-.08l-.07-.23v-.07a35.23 35.23 0 0 0 1.63-10.2 34.88 34.88 0 0 0-1.71-10.65v-.07l.08-.23h.07c.82-.37 2.53-1.26 4.47-2.31A22.35 22.35 0 0 1 65 .09a3.51 3.51 0 0 1 3.57 1.19A3.47 3.47 0 0 1 72.15.09a28.11 28.11 0 0 1 5.21 2.23C79.3 3.37 81 4.26 81.83 4.63h.07l.08.23v.07a35.64 35.64 0 0 0-1.72 10.65A32.6 32.6 0 0 0 82 25.78v.07l-.08.23h-.07a31.65 31.65 0 0 0-13.2 8.48zm6.77-30.3a20.21 20.21 0 0 0-3.87-1.64 2.71 2.71 0 0 0-3 1.71l-.07.15-.07-.15a2.77 2.77 0 0 0-3-1.71 20.21 20.21 0 0 0-3.87 1.64C60.09 5 58.67 5.75 58 6.05a28.8 28.8 0 0 1 1.34 8.86h2.09v-1.57h4.84V8.5h4.24v4.84h4.84v1.57h2.23a29.11 29.11 0 0 1 1.34-8.86c-.59-.3-2-1-3.5-1.79m-6.92 27a29.45 29.45 0 0 1 10.42-6.7 35.1 35.1 0 0 1-1-5.07c-.22-1.71-.3-3.35-.3-3.5h-2.27v1.57h-4.84v4.84h-4.24v-4.81h-4.84V16h-2.09a35.6 35.6 0 0 1-1.26 8.57 29.45 29.45 0 0 1 10.42 6.7" fill="#b31e3c"/></g></g></svg>