<?xml version="1.0" encoding="utf-8"?>
<!-- Generator: Adobe Illustrator 15.0.0, SVG Export Plug-In  -->
<!DOCTYPE svg PUBLIC "-//W3C//DTD SVG 1.1//EN" "http://www.w3.org/Graphics/SVG/1.1/DTD/svg11.dtd" [
	<!ENTITY ns_flows "http://ns.adobe.com/Flows/1.0/">
]>
<svg version="1.1"
	 xmlns="http://www.w3.org/2000/svg" xmlns:xlink="http://www.w3.org/1999/xlink" xmlns:a="http://ns.adobe.com/AdobeSVGViewerExtensions/3.0/"
	 x="0px" y="0px" width="311px" height="228px" viewBox="-4.299 -15.549 311 228"
	 overflow="visible" enable-background="new -4.299 -15.549 311 228" xml:space="preserve">
<defs>
</defs>
<rect x="113.705" y="1" fill="none" stroke="#B31F3D" stroke-width="2" stroke-miterlimit="10" width="76.906" height="76.905"/>
<rect x="117.418" y="4.671" fill="#B31F3D" width="69.478" height="69.478"/>
<path d="M26.36,142.307H12.892l-3.335,8.916c-0.128,0.214-0.215,0.448-0.257,0.705c-0.043,0.256-0.064,0.449-0.064,0.577
	c0,0.471,0.225,0.855,0.673,1.154c0.449,0.3,1.357,0.556,2.726,0.77c0.599,0.087,0.898,0.492,0.898,1.219
	c0,0.3-0.043,0.663-0.128,1.091c-1.155-0.087-2.373-0.161-3.656-0.225c-1.283-0.064-2.544-0.097-3.784-0.097
	c-0.856,0-1.754,0.021-2.694,0.063c-0.941,0.043-1.988,0.129-3.143,0.258C0.042,156.566,0,156.375,0,156.16c0-0.213,0-0.385,0-0.513
	c0-0.812,0.278-1.239,0.834-1.282c1.325-0.258,2.277-0.535,2.854-0.834s1.036-0.812,1.379-1.539l15.457-36.943
	c0.342-0.727,0.855-1.09,1.54-1.09c0.213,0,0.427,0.012,0.641,0.032c0.214,0.022,0.449,0.054,0.706,0.097l15.457,38.096
	c0.256,0.642,0.748,1.123,1.475,1.443c0.727,0.32,1.517,0.545,2.373,0.674c0.641,0.128,0.962,0.556,0.962,1.282
	c0,0.343-0.043,0.728-0.128,1.155c-1.369-0.087-2.716-0.161-4.041-0.225c-1.326-0.064-2.565-0.097-3.72-0.097
	c-0.599,0-1.326,0.011-2.181,0.032c-0.856,0.021-1.732,0.053-2.629,0.096c-0.898,0.043-1.786,0.074-2.662,0.097
	c-0.877,0.021-1.615,0.054-2.213,0.097c-0.086-0.172-0.128-0.363-0.128-0.578c0-0.213,0-0.385,0-0.513
	c0-0.385,0.074-0.673,0.225-0.866c0.149-0.191,0.31-0.31,0.481-0.353c1.111-0.214,1.934-0.459,2.469-0.737
	c0.534-0.277,0.802-0.695,0.802-1.251c0-0.257-0.064-0.577-0.192-0.962L26.36,142.307z M25.142,139.1l-5.452-14.43l-5.58,14.43
	H25.142z"/>
<path d="M64.777,157.187c-3.592,0-6.734-0.556-9.428-1.667s-4.917-2.641-6.67-4.586c-1.754-1.945-3.069-4.233-3.944-6.863
	c-0.877-2.629-1.315-5.461-1.315-8.498c0-2.521,0.427-5.066,1.283-7.632c0.855-2.565,2.202-4.884,4.041-6.958
	c1.838-2.074,4.19-3.763,7.055-5.067c2.864-1.304,6.285-1.956,10.262-1.956c2.181,0,4.222,0.15,6.125,0.449
	c1.902,0.299,3.965,0.748,6.189,1.347c0.085,1.154,0.256,2.63,0.513,4.425c0.256,1.797,0.619,3.551,1.09,5.26
	c-0.215,0.043-0.492,0.096-0.834,0.16c-0.343,0.064-0.599,0.096-0.77,0.096c-0.343,0-0.631-0.053-0.866-0.16
	c-0.236-0.105-0.396-0.33-0.481-0.673c-0.471-1.411-1.005-2.598-1.603-3.56c-0.6-0.963-1.315-1.732-2.148-2.309
	c-0.834-0.578-1.807-0.994-2.918-1.251c-1.112-0.257-2.416-0.385-3.912-0.385c-2.309,0-4.352,0.396-6.125,1.187
	c-1.775,0.791-3.261,1.924-4.458,3.398c-1.198,1.476-2.106,3.25-2.726,5.324c-0.621,2.074-0.93,4.415-0.93,7.022
	c0,2.78,0.374,5.366,1.123,7.761c0.748,2.395,1.773,4.469,3.078,6.221c1.304,1.754,2.854,3.122,4.65,4.105s3.741,1.475,5.836,1.475
	c1.709,0,3.175-0.16,4.394-0.48c1.218-0.321,2.266-0.812,3.143-1.476c0.876-0.663,1.625-1.507,2.245-2.534
	c0.619-1.025,1.187-2.223,1.7-3.591c0.128-0.342,0.331-0.587,0.609-0.737c0.277-0.149,0.566-0.225,0.866-0.225
	c0.213,0,0.481,0.031,0.802,0.096s0.587,0.14,0.802,0.225c-0.257,0.728-0.524,1.551-0.802,2.469c-0.279,0.92-0.567,1.86-0.866,2.822
	c-0.3,0.963-0.567,1.924-0.802,2.887c-0.236,0.962-0.439,1.892-0.609,2.789c-2.096,0.385-4.233,0.663-6.414,0.834
	S67.385,157.187,64.777,157.187z"/>
<path d="M125.642,115.947c0.17-0.385,0.449-0.684,0.833-0.898c0.385-0.213,1.325-0.32,2.822-0.32c0.342,0,0.844-0.01,1.507-0.031
	c0.662-0.021,1.379-0.043,2.148-0.064s1.539-0.053,2.309-0.097c0.77-0.042,1.432-0.085,1.988-0.128
	c0.085,0.215,0.128,0.428,0.128,0.641c0,0.215,0,0.385,0,0.514c0,0.685-0.235,1.09-0.706,1.219c-0.856,0.128-1.529,0.256-2.02,0.385
	c-0.492,0.128-0.866,0.289-1.123,0.48c-0.257,0.193-0.428,0.418-0.513,0.674c-0.086,0.256-0.128,0.557-0.128,0.898
	c0,0.086,0.032,0.897,0.096,2.437c0.064,1.54,0.161,3.442,0.289,5.708c0.128,2.268,0.257,4.725,0.385,7.376
	c0.128,2.651,0.256,5.163,0.385,7.536c0.128,2.373,0.234,4.436,0.32,6.189c0.085,1.753,0.149,2.821,0.193,3.206
	c0,0.428,0.053,0.78,0.16,1.058c0.106,0.279,0.298,0.525,0.577,0.738c0.278,0.215,0.673,0.396,1.187,0.545
	c0.513,0.15,1.175,0.289,1.988,0.417c0.47,0.087,0.706,0.492,0.706,1.219c0,0.3-0.043,0.663-0.128,1.091
	c-1.497-0.087-2.854-0.161-4.073-0.225c-1.218-0.064-2.597-0.097-4.137-0.097c-1.411,0-2.918,0.032-4.521,0.097
	c-1.604,0.063-2.94,0.138-4.008,0.225c-0.086-0.428-0.128-0.791-0.128-1.091c0-0.47,0.074-0.791,0.225-0.962
	c0.149-0.17,0.289-0.257,0.417-0.257c1.753-0.298,2.886-0.651,3.399-1.058s0.77-1.037,0.77-1.893c0-0.129-0.032-0.812-0.096-2.053
	c-0.064-1.239-0.128-2.778-0.192-4.617c-0.064-1.838-0.15-3.826-0.256-5.965c-0.107-2.138-0.215-4.146-0.321-6.029
	c-0.107-1.881-0.192-3.505-0.256-4.874c-0.064-1.368-0.119-2.202-0.161-2.501l-13.148,30.593c-0.214,0.385-0.396,0.673-0.545,0.866
	c-0.15,0.191-0.353,0.288-0.609,0.288c-0.086,0-0.214,0-0.385,0c-0.171,0-0.3-0.022-0.385-0.063l-14.879-35.66
	c-0.043,0.557-0.096,1.679-0.161,3.367c-0.064,1.689-0.15,3.623-0.256,5.805c-0.107,2.18-0.214,4.479-0.321,6.895
	c-0.107,2.416-0.204,4.649-0.289,6.701c-0.086,2.053-0.16,3.775-0.225,5.164c-0.064,1.39-0.096,2.148-0.096,2.276
	c0,0.385,0.042,0.717,0.128,0.994c0.085,0.278,0.256,0.524,0.513,0.737c0.256,0.215,0.641,0.396,1.154,0.545
	c0.513,0.15,1.219,0.311,2.117,0.481c0.47,0.087,0.705,0.492,0.705,1.219c0,0.128-0.011,0.288-0.032,0.481
	c-0.022,0.191-0.054,0.395-0.096,0.609c-1.155-0.087-2.224-0.161-3.207-0.225c-0.984-0.064-1.967-0.097-2.95-0.097
	c-0.856,0-1.924,0.032-3.207,0.097c-1.283,0.063-2.438,0.138-3.463,0.225c-0.086-0.172-0.128-0.363-0.128-0.578
	c0-0.213,0-0.385,0-0.513c0-0.47,0.064-0.78,0.192-0.931c0.128-0.148,0.299-0.245,0.513-0.288c1.325-0.298,2.287-0.642,2.886-1.026
	c0.598-0.385,0.94-0.962,1.026-1.731c0-0.342,0.042-1.379,0.128-3.11c0.085-1.732,0.192-3.784,0.321-6.157
	c0.128-2.373,0.256-4.896,0.385-7.567c0.128-2.672,0.246-5.152,0.353-7.44c0.106-2.286,0.192-4.2,0.257-5.74
	c0.064-1.539,0.096-2.351,0.096-2.437c0-0.727-0.236-1.251-0.706-1.572c-0.471-0.32-1.497-0.609-3.079-0.865
	c-0.471-0.043-0.706-0.449-0.706-1.219c0-0.129,0-0.299,0-0.514c0-0.213,0.042-0.426,0.128-0.641
	c0.555,0.043,1.325,0.086,2.309,0.128c0.983,0.044,1.988,0.075,3.015,0.097c1.026,0.021,1.988,0.043,2.886,0.064
	s1.539,0.031,1.924,0.031c0.77,0,1.368,0.032,1.796,0.096c0.427,0.064,0.77,0.141,1.026,0.225c0.256,0.087,0.438,0.215,0.545,0.385
	c0.106,0.172,0.203,0.344,0.289,0.514l11.929,28.797L125.642,115.947z"/>
<path d="M157.581,117.936v15.457h9.043c0.812,0,1.368-0.331,1.667-0.994c0.299-0.662,0.555-1.742,0.77-3.239
	c0.042-0.342,0.17-0.565,0.385-0.673c0.213-0.107,0.491-0.16,0.834-0.16c0.128,0,0.331,0.01,0.609,0.031
	c0.277,0.021,0.481,0.055,0.609,0.096c-0.086,0.984-0.161,2.128-0.225,3.432c-0.064,1.305-0.096,2.405-0.096,3.303
	c0,0.77,0.021,1.68,0.064,2.727c0.042,1.048,0.128,2.234,0.257,3.559c-0.128,0.087-0.332,0.141-0.609,0.161
	c-0.279,0.022-0.481,0.032-0.609,0.032c-0.77,0-1.177-0.299-1.219-0.898c-0.256-1.624-0.545-2.726-0.866-3.303
	s-0.845-0.865-1.571-0.865h-9.043v14.365c0,0.898,0.555,1.498,1.667,1.797c1.111,0.299,2.992,0.448,5.644,0.448h2.694
	c1.283,0,2.362-0.17,3.239-0.513c0.876-0.342,1.657-0.822,2.341-1.443c0.683-0.619,1.283-1.347,1.795-2.181
	c0.513-0.833,1.026-1.764,1.54-2.79c0.128-0.299,0.427-0.449,0.898-0.449c0.213,0,0.47,0.064,0.77,0.193
	c0.299,0.128,0.598,0.256,0.898,0.385c-0.086,0.342-0.183,0.663-0.289,0.962c-0.107,0.3-0.204,0.599-0.289,0.897
	c-0.215,0.471-0.385,0.984-0.513,1.539c-0.128,0.557-0.257,1.006-0.385,1.348c-0.086,0.428-0.183,0.908-0.289,1.443
	c-0.107,0.535-0.214,1.047-0.321,1.539c-0.107,0.492-0.214,0.93-0.321,1.314c-0.107,0.385-0.182,0.641-0.225,0.77
	c-0.171,0.342-0.513,0.514-1.026,0.514c-0.343,0-0.834-0.022-1.475-0.064c-0.642-0.043-1.337-0.076-2.084-0.097
	c-0.749-0.022-1.507-0.054-2.277-0.097s-1.433-0.063-1.988-0.063h-14.559c-1.241,0-2.662,0.032-4.265,0.097
	c-1.604,0.063-3.046,0.138-4.329,0.225c-0.086-0.172-0.128-0.396-0.128-0.674c0-0.277,0-0.481,0-0.609
	c0-0.642,0.213-0.983,0.642-1.026c1.624-0.298,2.79-0.619,3.495-0.962c0.706-0.342,1.058-0.939,1.058-1.796v-32.132
	c0-0.428-0.064-0.779-0.192-1.059c-0.128-0.277-0.375-0.513-0.737-0.705c-0.364-0.193-0.834-0.363-1.411-0.514
	c-0.577-0.148-1.315-0.31-2.212-0.48c-0.428-0.129-0.642-0.514-0.642-1.154c0-0.214,0-0.418,0-0.609
	c0-0.193,0.042-0.395,0.128-0.609c1.838,0.128,3.463,0.215,4.874,0.256c1.411,0.043,2.63,0.064,3.656,0.064h13.148
	c1.924,0,3.581-0.064,4.971-0.192c1.389-0.128,2.341-0.192,2.854-0.192c0.47,0,0.812,0.192,1.026,0.577
	c0.128,0.343,0.235,0.974,0.321,1.892c0.085,0.92,0.234,1.871,0.449,2.854c0.128,0.728,0.277,1.433,0.449,2.116
	c0.17,0.686,0.427,1.519,0.77,2.502c-0.214,0.086-0.449,0.171-0.706,0.256c-0.256,0.086-0.513,0.129-0.77,0.129
	c-0.471,0-0.812-0.192-1.026-0.578c-0.513-1.111-1.016-2.062-1.507-2.854c-0.492-0.791-1.048-1.432-1.667-1.924
	c-0.621-0.491-1.347-0.844-2.181-1.059c-0.834-0.213-1.828-0.32-2.982-0.32H157.581z"/>
<path d="M209.401,151.671c0,0.428,0.032,0.78,0.096,1.058c0.064,0.279,0.235,0.525,0.513,0.738c0.278,0.215,0.684,0.396,1.219,0.545
	c0.534,0.15,1.251,0.289,2.148,0.417c0.427,0.087,0.642,0.449,0.642,1.091c0,0.128-0.012,0.32-0.032,0.576
	c-0.022,0.258-0.054,0.471-0.097,0.643c-1.369-0.087-2.833-0.161-4.393-0.225c-1.561-0.064-2.94-0.097-4.137-0.097
	c-1.241,0-2.629,0.032-4.168,0.097c-1.54,0.063-2.994,0.138-4.361,0.225c-0.086-0.172-0.128-0.385-0.128-0.643
	c0-0.256,0-0.448,0-0.576c0-0.684,0.213-1.048,0.642-1.091c0.897-0.128,1.613-0.267,2.148-0.417c0.534-0.148,0.93-0.33,1.187-0.545
	c0.256-0.213,0.427-0.459,0.513-0.738c0.085-0.277,0.128-0.63,0.128-1.058v-32.132c0-0.428-0.043-0.779-0.128-1.059
	c-0.086-0.277-0.257-0.523-0.513-0.737c-0.257-0.214-0.652-0.396-1.187-0.546c-0.535-0.148-1.251-0.288-2.148-0.416
	c-0.428-0.129-0.642-0.491-0.642-1.09c0-0.129,0-0.321,0-0.578c0-0.256,0.042-0.49,0.128-0.705c1.368,0.086,2.822,0.16,4.361,0.225
	c1.539,0.064,2.928,0.096,4.168,0.096c1.197,0,2.576-0.031,4.137-0.096c1.561-0.064,3.024-0.139,4.393-0.225
	c0.043,0.215,0.074,0.449,0.097,0.705c0.021,0.257,0.032,0.449,0.032,0.578c0,0.599-0.215,0.961-0.642,1.09
	c-0.897,0.128-1.614,0.268-2.148,0.416c-0.535,0.15-0.941,0.332-1.219,0.546c-0.278,0.214-0.449,0.46-0.513,0.737
	c-0.064,0.279-0.096,0.631-0.096,1.059V151.671z"/>
<path d="M252.757,142.436v-22.769c0-0.94-0.321-1.603-0.963-1.988c-0.641-0.385-1.774-0.683-3.398-0.897
	c-0.557-0.129-0.834-0.534-0.834-1.219c0-0.129,0-0.299,0-0.514c0-0.213,0.041-0.426,0.128-0.641
	c1.068,0.128,2.116,0.215,3.143,0.256c1.026,0.043,2.223,0.064,3.592,0.064c1.368,0,2.544-0.021,3.527-0.064
	c0.983-0.041,1.966-0.128,2.95-0.256c0.042,0.215,0.074,0.428,0.096,0.641c0.021,0.215,0.033,0.385,0.033,0.514
	c0,0.728-0.258,1.133-0.77,1.219c-1.412,0.215-2.373,0.513-2.887,0.897c-0.514,0.386-0.77,1.005-0.77,1.86v37.52
	c-0.172,0.042-0.46,0.074-0.866,0.096c-0.407,0.021-0.673,0.032-0.802,0.032c-0.299,0-0.62-0.075-0.962-0.225
	c-0.343-0.149-0.706-0.46-1.091-0.93l-25.27-32.067v27.706c0,0.428,0.033,0.78,0.097,1.058c0.064,0.279,0.235,0.514,0.513,0.706
	c0.278,0.192,0.684,0.364,1.219,0.513c0.535,0.15,1.251,0.311,2.148,0.481c0.214,0.043,0.396,0.14,0.545,0.288
	c0.15,0.15,0.225,0.461,0.225,0.931c0,0.3-0.043,0.663-0.128,1.091c-1.069-0.087-2.074-0.161-3.015-0.225
	c-0.94-0.064-2.031-0.097-3.271-0.097c-1.241,0-2.427,0.032-3.56,0.097c-1.133,0.063-2.17,0.138-3.11,0.225
	c-0.087-0.172-0.128-0.363-0.128-0.578c0-0.213,0-0.385,0-0.513c0-0.427,0.074-0.727,0.225-0.897
	c0.148-0.171,0.33-0.278,0.545-0.321c1.539-0.257,2.564-0.577,3.078-0.962s0.77-0.982,0.77-1.796v-32.452
	c0-0.684-0.225-1.208-0.674-1.572c-0.448-0.362-1.465-0.65-3.046-0.865c-0.513-0.129-0.77-0.534-0.77-1.219c0-0.086,0-0.182,0-0.289
	c0-0.105,0.021-0.225,0.063-0.353l0.064-0.513c0.599,0.043,1.176,0.075,1.732,0.096c0.555,0.022,1.111,0.055,1.667,0.097
	c0.94,0.043,1.892,0.075,2.854,0.097c0.961,0.021,1.741,0.031,2.34,0.031c1.24,0,2.053,0.055,2.438,0.16
	c0.385,0.107,0.727,0.311,1.026,0.609L252.757,142.436z"/>
<path d="M286.171,157.187c-3.592,0-6.734-0.556-9.429-1.667s-4.917-2.641-6.67-4.586c-1.754-1.945-3.069-4.233-3.944-6.863
	c-0.877-2.629-1.314-5.461-1.314-8.498c0-2.521,0.426-5.066,1.282-7.632c0.854-2.565,2.202-4.884,4.04-6.958s4.19-3.763,7.056-5.067
	c2.864-1.304,6.285-1.956,10.262-1.956c2.181,0,4.222,0.15,6.125,0.449c1.901,0.299,3.966,0.748,6.188,1.347
	c0.086,1.154,0.257,2.63,0.514,4.425c0.256,1.797,0.619,3.551,1.09,5.26c-0.215,0.043-0.492,0.096-0.834,0.16
	s-0.599,0.096-0.77,0.096c-0.342,0-0.631-0.053-0.865-0.16c-0.236-0.105-0.396-0.33-0.481-0.673
	c-0.471-1.411-1.005-2.598-1.603-3.56c-0.6-0.963-1.315-1.732-2.148-2.309c-0.834-0.578-1.808-0.994-2.919-1.251
	c-1.112-0.257-2.416-0.385-3.912-0.385c-2.31,0-4.352,0.396-6.125,1.187c-1.774,0.791-3.261,1.924-4.458,3.398
	c-1.197,1.476-2.105,3.25-2.725,5.324c-0.621,2.074-0.931,4.415-0.931,7.022c0,2.78,0.374,5.366,1.122,7.761
	s1.773,4.469,3.078,6.221c1.305,1.754,2.854,3.122,4.65,4.105s3.741,1.475,5.836,1.475c1.71,0,3.176-0.16,4.395-0.48
	c1.218-0.321,2.266-0.812,3.143-1.476c0.875-0.663,1.624-1.507,2.244-2.534c0.619-1.025,1.187-2.223,1.699-3.591
	c0.129-0.342,0.331-0.587,0.609-0.737c0.277-0.149,0.566-0.225,0.866-0.225c0.214,0,0.481,0.031,0.802,0.096s0.587,0.14,0.802,0.225
	c-0.257,0.728-0.524,1.551-0.802,2.469c-0.279,0.92-0.567,1.86-0.865,2.822c-0.301,0.963-0.568,1.924-0.803,2.887
	c-0.235,0.962-0.438,1.892-0.609,2.789c-2.096,0.385-4.232,0.663-6.413,0.834S288.779,157.187,286.171,157.187z"/>
<rect x="143.58" y="11.803" fill="#FFFFFF" width="17.153" height="55.202"/>
<rect x="124.555" y="30.826" fill="#FFFFFF" width="55.205" height="17.155"/>
<path d="M43.465,199c-0.499,0.083-0.965,0.155-1.402,0.218c-0.436,0.062-0.888,0.119-1.355,0.171s-0.976,0.088-1.526,0.108
	c-0.55,0.021-1.189,0.031-1.916,0.031c-1.869,0-3.483-0.249-4.843-0.746s-2.476-1.207-3.348-2.13
	c-0.872-0.922-1.521-2.025-1.947-3.312c-0.425-1.285-0.638-2.715-0.638-4.29c0-1.224,0.207-2.457,0.622-3.7
	c0.414-1.244,1.052-2.368,1.912-3.374c0.86-1.005,1.938-1.823,3.233-2.456c1.295-0.632,2.814-0.948,4.555-0.948
	c1.202,0,2.43,0.089,3.684,0.265c1.254,0.176,2.441,0.409,3.56,0.699c0.042,0.56,0.125,1.274,0.249,2.146
	c0.125,0.87,0.3,1.721,0.528,2.55c-0.104,0.021-0.228,0.046-0.373,0.077s-0.259,0.047-0.342,0.047c-0.167,0-0.306-0.025-0.42-0.078
	c-0.114-0.051-0.192-0.16-0.233-0.326c-0.436-1.431-1.15-2.409-2.146-2.938c-0.995-0.528-2.229-0.793-3.7-0.793
	c-1.119,0-2.109,0.192-2.969,0.575c-0.86,0.384-1.575,0.934-2.146,1.648s-1.005,1.575-1.306,2.58
	c-0.301,1.006-0.451,2.141-0.451,3.405c0,1.389,0.166,2.663,0.498,3.824c0.331,1.161,0.818,2.161,1.461,3
	c0.643,0.84,1.435,1.493,2.379,1.959c0.943,0.467,2.026,0.699,3.249,0.699c0.435,0,0.824-0.02,1.166-0.062
	c0.342-0.041,0.699-0.114,1.073-0.218v-4.478c0-0.56-0.156-0.948-0.467-1.166c-0.311-0.218-0.86-0.378-1.647-0.481
	c-0.167-0.042-0.28-0.13-0.342-0.265c-0.062-0.135-0.093-0.264-0.093-0.389c0-0.062,0.005-0.155,0.016-0.279
	c0.01-0.125,0.026-0.218,0.046-0.28c0.311,0.021,0.658,0.042,1.042,0.062c0.383,0.021,0.778,0.036,1.183,0.046
	c0.405,0.011,0.796,0.021,1.172,0.031c0.376,0.011,0.7,0.016,0.972,0.016c0.271,0,0.59-0.005,0.956-0.016
	c0.365-0.01,0.741-0.021,1.125-0.031c0.385-0.01,0.759-0.025,1.122-0.046c0.362-0.021,0.668-0.042,0.917-0.062
	c0.042,0.104,0.062,0.207,0.062,0.311c0,0.104,0,0.187,0,0.249c0,0.187-0.037,0.326-0.109,0.42
	c-0.073,0.093-0.161,0.161-0.265,0.202c-0.664,0.083-1.125,0.218-1.383,0.404c-0.259,0.187-0.389,0.497-0.389,0.933v5.41
	c0,0.187-0.052,0.342-0.156,0.466C44.233,198.813,43.942,198.917,43.465,199z"/>
<path d="M54.908,180.5v7.493h4.384c0.393,0,0.663-0.16,0.808-0.481s0.269-0.845,0.373-1.57c0.021-0.166,0.083-0.274,0.187-0.327
	c0.104-0.051,0.238-0.077,0.404-0.077c0.062,0,0.16,0.005,0.295,0.016c0.135,0.011,0.233,0.026,0.295,0.046
	c-0.042,0.478-0.078,1.032-0.109,1.664c-0.031,0.633-0.046,1.166-0.046,1.601c0,0.374,0.01,0.814,0.031,1.322
	s0.062,1.083,0.125,1.726c-0.062,0.041-0.161,0.067-0.295,0.077c-0.135,0.011-0.233,0.016-0.295,0.016
	c-0.373,0-0.57-0.145-0.591-0.436c-0.124-0.787-0.264-1.321-0.419-1.601c-0.156-0.28-0.41-0.42-0.762-0.42h-4.384v6.965
	c0,0.435,0.269,0.726,0.809,0.87c0.539,0.146,1.451,0.218,2.736,0.218h1.306c0.622,0,1.145-0.082,1.57-0.249
	c0.425-0.165,0.803-0.398,1.135-0.699c0.331-0.3,0.622-0.653,0.871-1.057c0.249-0.404,0.497-0.855,0.746-1.353
	c0.062-0.146,0.207-0.218,0.435-0.218c0.104,0,0.228,0.031,0.373,0.093c0.145,0.062,0.29,0.125,0.436,0.187
	c-0.042,0.166-0.088,0.322-0.14,0.467c-0.052,0.146-0.099,0.29-0.14,0.436c-0.104,0.228-0.187,0.477-0.249,0.746
	c-0.062,0.27-0.124,0.487-0.187,0.652c-0.042,0.208-0.088,0.44-0.14,0.7c-0.052,0.259-0.104,0.508-0.156,0.746
	s-0.104,0.45-0.155,0.637c-0.052,0.187-0.088,0.312-0.109,0.373c-0.083,0.166-0.249,0.249-0.498,0.249
	c-0.166,0-0.404-0.011-0.715-0.031s-0.648-0.036-1.011-0.046c-0.363-0.011-0.73-0.026-1.104-0.047
	c-0.373-0.021-0.695-0.031-0.964-0.031h-7.058c-0.602,0-1.29,0.016-2.067,0.047s-1.477,0.066-2.099,0.108
	c-0.042-0.083-0.062-0.191-0.062-0.326s0-0.233,0-0.296c0-0.311,0.104-0.477,0.311-0.497c0.788-0.145,1.353-0.3,1.694-0.467
	c0.342-0.165,0.513-0.455,0.513-0.87v-15.577c0-0.207-0.031-0.378-0.093-0.513s-0.182-0.249-0.357-0.343
	c-0.177-0.093-0.404-0.176-0.684-0.248s-0.638-0.15-1.073-0.233c-0.208-0.062-0.311-0.249-0.311-0.56c0-0.104,0-0.202,0-0.296
	c0-0.093,0.021-0.191,0.062-0.295c0.891,0.062,1.679,0.104,2.363,0.124c0.684,0.021,1.275,0.031,1.772,0.031h6.374
	c0.933,0,1.736-0.031,2.41-0.093c0.673-0.062,1.135-0.094,1.384-0.094c0.228,0,0.394,0.094,0.498,0.28
	c0.062,0.166,0.113,0.472,0.155,0.917c0.042,0.445,0.114,0.907,0.218,1.384c0.062,0.353,0.134,0.694,0.217,1.025
	c0.083,0.332,0.207,0.736,0.374,1.213c-0.104,0.042-0.218,0.083-0.342,0.124c-0.125,0.042-0.249,0.062-0.373,0.062
	c-0.229,0-0.394-0.094-0.498-0.28c-0.249-0.538-0.493-0.999-0.73-1.383c-0.239-0.384-0.508-0.694-0.809-0.934
	c-0.301-0.237-0.653-0.408-1.057-0.513c-0.404-0.104-0.886-0.155-1.446-0.155H54.908z"/>
<path d="M83.638,192.377V181.34c0-0.456-0.156-0.777-0.466-0.964c-0.311-0.187-0.861-0.332-1.648-0.436
	c-0.27-0.062-0.404-0.259-0.404-0.591c0-0.062,0-0.145,0-0.249c0-0.104,0.021-0.207,0.062-0.311
	c0.518,0.062,1.026,0.104,1.523,0.124c0.498,0.021,1.078,0.031,1.741,0.031c0.663,0,1.233-0.01,1.71-0.031
	c0.477-0.021,0.953-0.062,1.43-0.124c0.02,0.104,0.036,0.207,0.046,0.311c0.01,0.104,0.016,0.187,0.016,0.249
	c0,0.353-0.125,0.55-0.373,0.591c-0.684,0.104-1.15,0.249-1.399,0.436c-0.249,0.187-0.373,0.487-0.373,0.901v18.188
	c-0.083,0.021-0.223,0.036-0.419,0.047c-0.197,0.011-0.327,0.016-0.389,0.016c-0.146,0-0.301-0.036-0.466-0.108
	c-0.167-0.073-0.342-0.224-0.529-0.451l-12.25-15.546v13.432c0,0.207,0.016,0.378,0.047,0.513c0.031,0.136,0.114,0.249,0.249,0.343
	c0.135,0.093,0.332,0.176,0.591,0.248c0.259,0.073,0.606,0.15,1.042,0.233c0.104,0.021,0.191,0.067,0.265,0.14
	c0.072,0.073,0.108,0.224,0.108,0.451c0,0.146-0.021,0.321-0.062,0.528c-0.518-0.042-1.005-0.077-1.461-0.108
	s-0.984-0.047-1.585-0.047c-0.602,0-1.177,0.016-1.726,0.047c-0.55,0.031-1.052,0.066-1.508,0.108
	c-0.042-0.083-0.062-0.176-0.062-0.279s0-0.187,0-0.249c0-0.207,0.036-0.353,0.109-0.436c0.072-0.082,0.16-0.135,0.264-0.155
	c0.746-0.124,1.244-0.28,1.493-0.467c0.249-0.187,0.373-0.477,0.373-0.87v-15.732c0-0.332-0.109-0.586-0.327-0.762
	s-0.71-0.316-1.477-0.42c-0.249-0.062-0.374-0.259-0.374-0.591c0-0.041,0-0.088,0-0.14s0.01-0.109,0.031-0.171l0.031-0.249
	c0.29,0.021,0.57,0.036,0.839,0.047c0.269,0.011,0.539,0.025,0.809,0.046c0.456,0.021,0.917,0.037,1.383,0.047
	c0.466,0.011,0.844,0.016,1.135,0.016c0.601,0,0.995,0.026,1.182,0.078s0.353,0.15,0.498,0.295L83.638,192.377z"/>
<path d="M108.822,191.476c0,1.182-0.125,2.265-0.373,3.249c-0.249,0.984-0.679,1.834-1.291,2.55c-0.612,0.715-1.43,1.27-2.456,1.663
	c-1.026,0.394-2.316,0.591-3.871,0.591c-1.845,0-3.332-0.207-4.462-0.622c-1.13-0.414-2-0.979-2.612-1.694s-1.021-1.555-1.228-2.519
	c-0.208-0.964-0.311-1.994-0.311-3.094v-10.322c0-0.436-0.135-0.741-0.404-0.917c-0.27-0.176-0.819-0.316-1.648-0.42
	c-0.229-0.041-0.342-0.238-0.342-0.591c0-0.062,0-0.145,0-0.249c0-0.104,0.021-0.207,0.062-0.311
	c0.601,0.042,1.238,0.077,1.912,0.108c0.673,0.031,1.477,0.047,2.41,0.047c0.725,0,1.481-0.016,2.27-0.047
	c0.788-0.031,1.493-0.066,2.114-0.108c0.021,0.104,0.036,0.207,0.047,0.311c0.01,0.104,0.016,0.187,0.016,0.249
	c0,0.353-0.114,0.55-0.342,0.591c-0.85,0.104-1.425,0.249-1.726,0.436c-0.301,0.187-0.451,0.487-0.451,0.901v9.639
	c0,2.156,0.399,3.793,1.197,4.912s2.171,1.68,4.12,1.68c1.99,0,3.405-0.523,4.244-1.57c0.84-1.047,1.259-2.752,1.259-5.115v-9.545
	c0-0.414-0.145-0.715-0.435-0.901c-0.291-0.187-0.84-0.332-1.648-0.436c-0.249-0.062-0.373-0.259-0.373-0.591
	c0-0.062,0.005-0.145,0.016-0.249c0.01-0.104,0.025-0.207,0.046-0.311c0.601,0.062,1.155,0.104,1.664,0.124
	c0.508,0.021,1.052,0.031,1.632,0.031c0.663,0,1.254-0.01,1.772-0.031c0.518-0.021,1.026-0.062,1.524-0.124
	c0.02,0.104,0.036,0.207,0.046,0.311c0.01,0.104,0.016,0.187,0.016,0.249c0,0.332-0.125,0.528-0.373,0.591
	c-0.767,0.083-1.296,0.223-1.586,0.42c-0.291,0.197-0.435,0.503-0.435,0.917V191.476z"/>
<path d="M119.642,196.854c0,0.207,0.016,0.378,0.047,0.513c0.031,0.136,0.113,0.254,0.249,0.357
	c0.135,0.104,0.332,0.192,0.591,0.265c0.259,0.073,0.606,0.14,1.042,0.202c0.207,0.042,0.311,0.218,0.311,0.528
	c0,0.062-0.005,0.155-0.016,0.28c-0.011,0.124-0.026,0.228-0.047,0.311c-0.664-0.042-1.373-0.077-2.129-0.108
	c-0.757-0.031-1.426-0.047-2.006-0.047c-0.601,0-1.274,0.016-2.021,0.047c-0.746,0.031-1.451,0.066-2.114,0.108
	c-0.042-0.083-0.062-0.187-0.062-0.311c0-0.125,0-0.218,0-0.28c0-0.331,0.104-0.508,0.311-0.528
	c0.435-0.062,0.782-0.129,1.042-0.202c0.259-0.072,0.451-0.16,0.575-0.265c0.125-0.104,0.207-0.222,0.249-0.357
	c0.042-0.135,0.062-0.306,0.062-0.513v-15.577c0-0.207-0.021-0.378-0.062-0.513s-0.124-0.254-0.249-0.358
	c-0.125-0.104-0.316-0.191-0.575-0.264c-0.259-0.072-0.606-0.14-1.042-0.202c-0.208-0.062-0.311-0.238-0.311-0.528
	c0-0.062,0-0.156,0-0.28s0.021-0.238,0.062-0.342c0.664,0.042,1.368,0.077,2.114,0.108c0.747,0.031,1.42,0.047,2.021,0.047
	c0.58,0,1.249-0.016,2.006-0.047c0.756-0.031,1.466-0.066,2.129-0.108c0.021,0.104,0.036,0.218,0.047,0.342
	c0.01,0.124,0.016,0.218,0.016,0.28c0,0.29-0.104,0.466-0.311,0.528c-0.435,0.062-0.783,0.13-1.042,0.202
	c-0.259,0.072-0.456,0.16-0.591,0.264c-0.135,0.104-0.218,0.224-0.249,0.358c-0.031,0.135-0.047,0.306-0.047,0.513V196.854z"/>
<path d="M140.66,192.377V181.34c0-0.456-0.156-0.777-0.466-0.964c-0.311-0.187-0.861-0.332-1.648-0.436
	c-0.27-0.062-0.404-0.259-0.404-0.591c0-0.062,0-0.145,0-0.249c0-0.104,0.021-0.207,0.062-0.311
	c0.518,0.062,1.026,0.104,1.523,0.124c0.498,0.021,1.078,0.031,1.741,0.031c0.663,0,1.233-0.01,1.71-0.031
	c0.477-0.021,0.953-0.062,1.43-0.124c0.02,0.104,0.036,0.207,0.046,0.311c0.01,0.104,0.016,0.187,0.016,0.249
	c0,0.353-0.125,0.55-0.373,0.591c-0.684,0.104-1.15,0.249-1.399,0.436c-0.249,0.187-0.373,0.487-0.373,0.901v18.188
	c-0.083,0.021-0.223,0.036-0.419,0.047c-0.197,0.011-0.327,0.016-0.389,0.016c-0.146,0-0.301-0.036-0.466-0.108
	c-0.167-0.073-0.342-0.224-0.529-0.451l-12.25-15.546v13.432c0,0.207,0.016,0.378,0.047,0.513c0.031,0.136,0.114,0.249,0.249,0.343
	c0.135,0.093,0.332,0.176,0.591,0.248c0.259,0.073,0.606,0.15,1.042,0.233c0.104,0.021,0.191,0.067,0.265,0.14
	c0.072,0.073,0.108,0.224,0.108,0.451c0,0.146-0.021,0.321-0.062,0.528c-0.518-0.042-1.005-0.077-1.461-0.108
	s-0.984-0.047-1.585-0.047c-0.602,0-1.177,0.016-1.726,0.047c-0.55,0.031-1.052,0.066-1.508,0.108
	c-0.042-0.083-0.062-0.176-0.062-0.279s0-0.187,0-0.249c0-0.207,0.036-0.353,0.109-0.436c0.072-0.082,0.16-0.135,0.264-0.155
	c0.746-0.124,1.244-0.28,1.493-0.467c0.249-0.187,0.373-0.477,0.373-0.87v-15.732c0-0.332-0.109-0.586-0.327-0.762
	s-0.71-0.316-1.477-0.42c-0.249-0.062-0.374-0.259-0.374-0.591c0-0.041,0-0.088,0-0.14s0.01-0.109,0.031-0.171l0.031-0.249
	c0.29,0.021,0.57,0.036,0.839,0.047c0.269,0.011,0.539,0.025,0.809,0.046c0.456,0.021,0.917,0.037,1.383,0.047
	c0.466,0.011,0.844,0.016,1.135,0.016c0.601,0,0.995,0.026,1.182,0.078s0.353,0.15,0.498,0.295L140.66,192.377z"/>
<path d="M153.5,180.5v7.493h4.384c0.393,0,0.663-0.16,0.808-0.481s0.269-0.845,0.373-1.57c0.021-0.166,0.083-0.274,0.187-0.327
	c0.104-0.051,0.238-0.077,0.404-0.077c0.062,0,0.16,0.005,0.295,0.016c0.135,0.011,0.233,0.026,0.295,0.046
	c-0.042,0.478-0.078,1.032-0.109,1.664c-0.031,0.633-0.046,1.166-0.046,1.601c0,0.374,0.01,0.814,0.031,1.322
	s0.062,1.083,0.125,1.726c-0.062,0.041-0.161,0.067-0.295,0.077c-0.135,0.011-0.233,0.016-0.295,0.016
	c-0.373,0-0.57-0.145-0.591-0.436c-0.124-0.787-0.264-1.321-0.419-1.601c-0.156-0.28-0.41-0.42-0.762-0.42H153.5v6.965
	c0,0.435,0.269,0.726,0.809,0.87c0.539,0.146,1.451,0.218,2.736,0.218h1.306c0.622,0,1.145-0.082,1.57-0.249
	c0.425-0.165,0.803-0.398,1.135-0.699c0.331-0.3,0.622-0.653,0.871-1.057c0.249-0.404,0.497-0.855,0.746-1.353
	c0.062-0.146,0.207-0.218,0.435-0.218c0.104,0,0.228,0.031,0.373,0.093c0.145,0.062,0.29,0.125,0.436,0.187
	c-0.042,0.166-0.088,0.322-0.14,0.467c-0.052,0.146-0.099,0.29-0.14,0.436c-0.104,0.228-0.187,0.477-0.249,0.746
	c-0.062,0.27-0.124,0.487-0.187,0.652c-0.042,0.208-0.088,0.44-0.14,0.7c-0.052,0.259-0.104,0.508-0.156,0.746
	s-0.104,0.45-0.155,0.637c-0.052,0.187-0.088,0.312-0.109,0.373c-0.083,0.166-0.249,0.249-0.498,0.249
	c-0.166,0-0.404-0.011-0.715-0.031s-0.648-0.036-1.011-0.046c-0.363-0.011-0.73-0.026-1.104-0.047
	c-0.373-0.021-0.695-0.031-0.964-0.031h-7.058c-0.602,0-1.29,0.016-2.067,0.047s-1.477,0.066-2.099,0.108
	c-0.042-0.083-0.062-0.191-0.062-0.326s0-0.233,0-0.296c0-0.311,0.104-0.477,0.311-0.497c0.788-0.145,1.353-0.3,1.694-0.467
	c0.342-0.165,0.513-0.455,0.513-0.87v-15.577c0-0.207-0.031-0.378-0.093-0.513s-0.182-0.249-0.357-0.343
	c-0.177-0.093-0.404-0.176-0.684-0.248s-0.638-0.15-1.073-0.233c-0.208-0.062-0.311-0.249-0.311-0.56c0-0.104,0-0.202,0-0.296
	c0-0.093,0.021-0.191,0.062-0.295c0.891,0.062,1.679,0.104,2.363,0.124c0.684,0.021,1.275,0.031,1.772,0.031h6.374
	c0.933,0,1.736-0.031,2.41-0.093c0.673-0.062,1.135-0.094,1.384-0.094c0.228,0,0.394,0.094,0.498,0.28
	c0.062,0.166,0.113,0.472,0.155,0.917c0.042,0.445,0.114,0.907,0.218,1.384c0.062,0.353,0.134,0.694,0.217,1.025
	c0.083,0.332,0.207,0.736,0.374,1.213c-0.104,0.042-0.218,0.083-0.342,0.124c-0.125,0.042-0.249,0.062-0.373,0.062
	c-0.229,0-0.394-0.094-0.498-0.28c-0.249-0.538-0.493-0.999-0.73-1.383c-0.239-0.384-0.508-0.694-0.809-0.934
	c-0.301-0.237-0.653-0.408-1.057-0.513c-0.404-0.104-0.886-0.155-1.446-0.155H153.5z"/>
<path d="M178.623,188.988v7.866c0,0.207,0.01,0.378,0.031,0.513c0.021,0.136,0.088,0.254,0.202,0.357
	c0.113,0.104,0.28,0.192,0.497,0.265c0.218,0.073,0.523,0.14,0.917,0.202c0.228,0.042,0.342,0.197,0.342,0.467
	c0,0.062-0.005,0.166-0.015,0.311c-0.011,0.146-0.026,0.259-0.047,0.342c-0.664-0.042-1.337-0.077-2.021-0.108
	s-1.316-0.047-1.896-0.047c-0.581,0-1.244,0.016-1.99,0.047c-0.746,0.031-1.451,0.066-2.114,0.108
	c-0.042-0.083-0.062-0.191-0.062-0.326s0-0.233,0-0.296c0-0.311,0.104-0.477,0.311-0.497c0.435-0.062,0.782-0.129,1.042-0.202
	c0.259-0.072,0.451-0.16,0.575-0.265c0.125-0.104,0.207-0.222,0.249-0.357c0.042-0.135,0.062-0.306,0.062-0.513v-15.577
	c0-0.207-0.021-0.378-0.062-0.513s-0.124-0.254-0.249-0.358c-0.125-0.104-0.316-0.191-0.575-0.264
	c-0.259-0.072-0.606-0.14-1.042-0.202c-0.208-0.062-0.311-0.238-0.311-0.528c0-0.062,0-0.156,0-0.28s0.021-0.238,0.062-0.342
	c0.664,0.042,1.368,0.077,2.114,0.108c0.747,0.031,1.41,0.047,1.99,0.047c0.58,0,1.254-0.016,2.021-0.047
	c0.767-0.031,1.481-0.066,2.145-0.108c0.021,0.104,0.036,0.218,0.047,0.342c0.01,0.124,0.016,0.218,0.016,0.28
	c0,0.29-0.104,0.466-0.311,0.528c-0.435,0.062-0.783,0.13-1.042,0.202c-0.259,0.072-0.456,0.16-0.591,0.264
	c-0.135,0.104-0.218,0.224-0.249,0.358c-0.031,0.135-0.047,0.306-0.047,0.513v7.183l6.747-6.747
	c0.435-0.394,0.653-0.746,0.653-1.058c0-0.353-0.466-0.58-1.399-0.684c-0.229,0-0.342-0.218-0.342-0.653c0-0.062,0-0.14,0-0.233
	c0-0.093,0.021-0.191,0.062-0.295c0.58,0.042,1.186,0.077,1.819,0.108c0.632,0.031,1.197,0.047,1.694,0.047
	c0.228,0,0.487-0.005,0.777-0.016c0.29-0.01,0.585-0.021,0.886-0.031c0.3-0.01,0.591-0.025,0.871-0.046s0.523-0.042,0.73-0.062
	c0.042,0.104,0.062,0.202,0.062,0.295c0,0.094,0,0.171,0,0.233c0,0.415-0.114,0.643-0.342,0.685
	c-0.581,0.124-1.047,0.264-1.399,0.419c-0.353,0.156-0.695,0.399-1.026,0.731l-6.312,6.125l7.4,9.327
	c0.373,0.478,0.746,0.814,1.119,1.011c0.373,0.197,0.84,0.348,1.399,0.451c0.29,0.041,0.435,0.228,0.435,0.56
	c0,0.062-0.005,0.171-0.016,0.326s-0.036,0.274-0.078,0.357c-0.311-0.021-0.658-0.042-1.042-0.062
	c-0.384-0.021-0.772-0.037-1.166-0.047c-0.394-0.011-0.772-0.021-1.135-0.031c-0.363-0.011-0.679-0.016-0.948-0.016
	c-0.581,0-1.291,0.016-2.13,0.047s-1.622,0.066-2.348,0.108c-0.021-0.083-0.036-0.191-0.046-0.326
	c-0.011-0.135-0.016-0.233-0.016-0.296c0-0.331,0.125-0.497,0.373-0.497c0.498-0.062,0.844-0.145,1.042-0.249
	c0.197-0.104,0.295-0.237,0.295-0.404c0-0.124-0.036-0.243-0.109-0.357c-0.073-0.113-0.171-0.253-0.295-0.42L178.623,188.988z"/>
<path d="M209.808,192.377V181.34c0-0.456-0.156-0.777-0.466-0.964c-0.311-0.187-0.861-0.332-1.648-0.436
	c-0.27-0.062-0.404-0.259-0.404-0.591c0-0.062,0-0.145,0-0.249c0-0.104,0.021-0.207,0.062-0.311
	c0.518,0.062,1.026,0.104,1.523,0.124c0.498,0.021,1.078,0.031,1.741,0.031c0.663,0,1.233-0.01,1.71-0.031
	c0.477-0.021,0.953-0.062,1.431-0.124c0.02,0.104,0.035,0.207,0.046,0.311c0.011,0.104,0.016,0.187,0.016,0.249
	c0,0.353-0.124,0.55-0.373,0.591c-0.685,0.104-1.15,0.249-1.399,0.436c-0.248,0.187-0.373,0.487-0.373,0.901v18.188
	c-0.083,0.021-0.223,0.036-0.419,0.047c-0.197,0.011-0.327,0.016-0.389,0.016c-0.146,0-0.301-0.036-0.466-0.108
	c-0.167-0.073-0.342-0.224-0.529-0.451l-12.25-15.546v13.432c0,0.207,0.016,0.378,0.047,0.513c0.031,0.136,0.114,0.249,0.249,0.343
	c0.135,0.093,0.332,0.176,0.591,0.248c0.259,0.073,0.606,0.15,1.042,0.233c0.104,0.021,0.191,0.067,0.265,0.14
	c0.072,0.073,0.108,0.224,0.108,0.451c0,0.146-0.021,0.321-0.062,0.528c-0.518-0.042-1.005-0.077-1.461-0.108
	s-0.984-0.047-1.585-0.047c-0.602,0-1.177,0.016-1.726,0.047c-0.55,0.031-1.052,0.066-1.508,0.108
	c-0.042-0.083-0.062-0.176-0.062-0.279s0-0.187,0-0.249c0-0.207,0.036-0.353,0.109-0.436c0.072-0.082,0.16-0.135,0.264-0.155
	c0.746-0.124,1.244-0.28,1.493-0.467c0.249-0.187,0.373-0.477,0.373-0.87v-15.732c0-0.332-0.109-0.586-0.327-0.762
	s-0.71-0.316-1.477-0.42c-0.249-0.062-0.374-0.259-0.374-0.591c0-0.041,0-0.088,0-0.14s0.01-0.109,0.031-0.171l0.031-0.249
	c0.29,0.021,0.57,0.036,0.839,0.047c0.269,0.011,0.539,0.025,0.809,0.046c0.456,0.021,0.917,0.037,1.383,0.047
	c0.466,0.011,0.844,0.016,1.135,0.016c0.601,0,0.995,0.026,1.182,0.078s0.353,0.15,0.498,0.295L209.808,192.377z"/>
<path d="M222.369,196.854c0,0.207,0.016,0.378,0.047,0.513c0.031,0.136,0.113,0.254,0.249,0.357
	c0.135,0.104,0.331,0.192,0.591,0.265c0.259,0.073,0.606,0.14,1.041,0.202c0.207,0.042,0.312,0.218,0.312,0.528
	c0,0.062-0.005,0.155-0.016,0.28c-0.011,0.124-0.026,0.228-0.047,0.311c-0.663-0.042-1.373-0.077-2.13-0.108
	s-1.426-0.047-2.006-0.047c-0.601,0-1.273,0.016-2.021,0.047c-0.746,0.031-1.45,0.066-2.114,0.108
	c-0.041-0.083-0.062-0.187-0.062-0.311c0-0.125,0-0.218,0-0.28c0-0.331,0.104-0.508,0.312-0.528
	c0.435-0.062,0.782-0.129,1.042-0.202c0.258-0.072,0.45-0.16,0.574-0.265c0.125-0.104,0.207-0.222,0.249-0.357
	c0.042-0.135,0.062-0.306,0.062-0.513v-15.577c0-0.207-0.021-0.378-0.062-0.513s-0.124-0.254-0.249-0.358
	c-0.124-0.104-0.316-0.191-0.574-0.264c-0.26-0.072-0.607-0.14-1.042-0.202c-0.208-0.062-0.312-0.238-0.312-0.528
	c0-0.062,0-0.156,0-0.28s0.021-0.238,0.062-0.342c0.664,0.042,1.368,0.077,2.114,0.108c0.747,0.031,1.42,0.047,2.021,0.047
	c0.58,0,1.249-0.016,2.006-0.047s1.467-0.066,2.13-0.108c0.021,0.104,0.036,0.218,0.047,0.342s0.016,0.218,0.016,0.28
	c0,0.29-0.104,0.466-0.312,0.528c-0.435,0.062-0.782,0.13-1.041,0.202c-0.26,0.072-0.456,0.16-0.591,0.264
	c-0.136,0.104-0.218,0.224-0.249,0.358s-0.047,0.306-0.047,0.513V196.854z"/>
<path d="M229.613,181.277c0-0.187-0.025-0.347-0.077-0.482c-0.052-0.134-0.161-0.253-0.327-0.357
	c-0.166-0.104-0.394-0.191-0.684-0.264c-0.291-0.072-0.664-0.15-1.119-0.233c-0.207-0.062-0.311-0.249-0.311-0.56
	c0-0.104,0-0.202,0-0.296c0-0.093,0.02-0.191,0.062-0.295c0.892,0.062,1.679,0.104,2.363,0.124c0.684,0.021,1.264,0.031,1.741,0.031
	h6.374c0.953,0,1.767-0.031,2.44-0.093c0.674-0.062,1.124-0.094,1.353-0.094c0.228,0,0.394,0.094,0.497,0.28
	c0.062,0.166,0.114,0.472,0.156,0.917c0.041,0.445,0.113,0.907,0.218,1.384c0.062,0.353,0.134,0.694,0.217,1.025
	c0.083,0.332,0.207,0.736,0.373,1.213c-0.083,0.042-0.191,0.083-0.326,0.124c-0.135,0.042-0.264,0.062-0.389,0.062
	c-0.229,0-0.384-0.094-0.466-0.28c-0.249-0.538-0.493-0.999-0.731-1.383s-0.508-0.694-0.808-0.934
	c-0.301-0.237-0.653-0.408-1.058-0.513c-0.404-0.104-0.896-0.155-1.477-0.155h-4.104v7.866h4.291c0.352,0,0.606-0.171,0.762-0.513
	s0.284-0.855,0.389-1.539c0.062-0.27,0.259-0.404,0.591-0.404c0.062,0,0.16,0.005,0.295,0.016s0.233,0.026,0.296,0.047
	c-0.042,0.477-0.078,1.031-0.109,1.663c-0.031,0.633-0.047,1.166-0.047,1.602c0,0.373,0.011,0.813,0.031,1.321
	s0.062,1.083,0.125,1.726c-0.062,0.041-0.156,0.067-0.28,0.077c-0.124,0.011-0.218,0.016-0.279,0.016
	c-0.354,0-0.561-0.145-0.622-0.436c-0.083-0.663-0.208-1.165-0.373-1.508c-0.166-0.342-0.426-0.513-0.777-0.513h-4.291v6.965
	c0,0.207,0.072,0.378,0.218,0.513c0.145,0.135,0.342,0.249,0.591,0.342c0.249,0.094,0.539,0.166,0.87,0.218
	c0.332,0.052,0.685,0.109,1.058,0.171c0.249,0.021,0.373,0.197,0.373,0.529c0,0.062-0.006,0.166-0.016,0.311
	c-0.011,0.146-0.026,0.259-0.047,0.342c-0.29,0-0.58-0.005-0.87-0.016c-0.291-0.011-0.581-0.026-0.871-0.046
	c-0.539-0.042-1.114-0.068-1.726-0.078c-0.611-0.011-1.218-0.016-1.818-0.016c-0.291,0-0.606,0.005-0.948,0.016
	c-0.343,0.01-0.7,0.025-1.073,0.047c-0.373,0.021-0.741,0.035-1.104,0.046c-0.363,0.011-0.699,0.026-1.011,0.047
	c-0.042-0.083-0.062-0.191-0.062-0.326s0-0.233,0-0.296c0-0.311,0.104-0.477,0.311-0.497c0.684-0.166,1.223-0.326,1.617-0.481
	c0.393-0.156,0.59-0.44,0.59-0.855V181.277z"/>
<path d="M251.346,180.5v7.493h4.384c0.394,0,0.663-0.16,0.809-0.481c0.145-0.321,0.27-0.845,0.373-1.57
	c0.021-0.166,0.083-0.274,0.187-0.327c0.104-0.051,0.238-0.077,0.404-0.077c0.062,0,0.16,0.005,0.296,0.016
	c0.134,0.011,0.232,0.026,0.295,0.046c-0.042,0.478-0.078,1.032-0.108,1.664c-0.031,0.633-0.047,1.166-0.047,1.601
	c0,0.374,0.01,0.814,0.031,1.322c0.021,0.508,0.062,1.083,0.124,1.726c-0.062,0.041-0.161,0.067-0.295,0.077
	c-0.136,0.011-0.233,0.016-0.296,0.016c-0.373,0-0.57-0.145-0.591-0.436c-0.124-0.787-0.264-1.321-0.42-1.601
	c-0.155-0.28-0.409-0.42-0.762-0.42h-4.384v6.965c0,0.435,0.27,0.726,0.809,0.87c0.539,0.146,1.45,0.218,2.736,0.218h1.306
	c0.622,0,1.145-0.082,1.57-0.249c0.425-0.165,0.803-0.398,1.135-0.699c0.331-0.3,0.622-0.653,0.87-1.057
	c0.249-0.404,0.498-0.855,0.746-1.353c0.062-0.146,0.207-0.218,0.436-0.218c0.104,0,0.228,0.031,0.373,0.093
	c0.145,0.062,0.29,0.125,0.436,0.187c-0.042,0.166-0.089,0.322-0.14,0.467c-0.053,0.146-0.099,0.29-0.141,0.436
	c-0.104,0.228-0.187,0.477-0.248,0.746c-0.062,0.27-0.125,0.487-0.187,0.652c-0.042,0.208-0.089,0.44-0.141,0.7
	c-0.052,0.259-0.104,0.508-0.155,0.746s-0.104,0.45-0.155,0.637s-0.089,0.312-0.108,0.373c-0.084,0.166-0.249,0.249-0.498,0.249
	c-0.166,0-0.404-0.011-0.715-0.031c-0.312-0.021-0.648-0.036-1.011-0.046c-0.362-0.011-0.73-0.026-1.104-0.047
	c-0.373-0.021-0.695-0.031-0.964-0.031h-7.058c-0.602,0-1.291,0.016-2.068,0.047s-1.477,0.066-2.099,0.108
	c-0.042-0.083-0.062-0.191-0.062-0.326s0-0.233,0-0.296c0-0.311,0.103-0.477,0.311-0.497c0.787-0.145,1.353-0.3,1.694-0.467
	c0.342-0.165,0.513-0.455,0.513-0.87v-15.577c0-0.207-0.03-0.378-0.093-0.513s-0.182-0.249-0.357-0.343
	c-0.177-0.093-0.404-0.176-0.685-0.248c-0.279-0.072-0.637-0.15-1.072-0.233c-0.208-0.062-0.311-0.249-0.311-0.56
	c0-0.104,0-0.202,0-0.296c0-0.093,0.02-0.191,0.062-0.295c0.892,0.062,1.679,0.104,2.363,0.124c0.684,0.021,1.274,0.031,1.772,0.031
	h6.374c0.933,0,1.735-0.031,2.409-0.093c0.674-0.062,1.135-0.094,1.384-0.094c0.228,0,0.394,0.094,0.497,0.28
	c0.062,0.166,0.114,0.472,0.155,0.917c0.042,0.445,0.114,0.907,0.218,1.384c0.062,0.353,0.135,0.694,0.218,1.025
	c0.083,0.332,0.207,0.736,0.373,1.213c-0.104,0.042-0.218,0.083-0.342,0.124c-0.124,0.042-0.249,0.062-0.373,0.062
	c-0.229,0-0.394-0.094-0.497-0.28c-0.249-0.538-0.493-0.999-0.731-1.383s-0.508-0.694-0.808-0.934
	c-0.301-0.237-0.653-0.408-1.058-0.513c-0.404-0.104-0.886-0.155-1.445-0.155H251.346z"/>
<path d="M277.09,183.982c-0.187,0.062-0.384,0.093-0.591,0.093c-0.29,0-0.497-0.057-0.621-0.171
	c-0.125-0.113-0.208-0.233-0.249-0.357c-0.478-1.182-1.094-2.031-1.85-2.55c-0.757-0.518-1.768-0.777-3.032-0.777
	c-0.994,0-1.84,0.244-2.533,0.731c-0.695,0.487-1.042,1.228-1.042,2.223c0,0.768,0.265,1.384,0.793,1.85
	c0.528,0.467,1.191,0.876,1.989,1.229s1.658,0.694,2.581,1.026c0.922,0.332,1.782,0.746,2.581,1.243
	c0.797,0.498,1.461,1.13,1.989,1.896c0.529,0.768,0.793,1.752,0.793,2.954c0,0.788-0.135,1.555-0.404,2.301
	s-0.694,1.404-1.274,1.975c-0.581,0.57-1.316,1.026-2.208,1.368s-1.958,0.513-3.202,0.513c-1.368,0-2.592-0.147-3.669-0.442
	c-1.078-0.294-1.97-0.614-2.674-0.96c-0.062-0.889-0.161-1.764-0.295-2.624c-0.136-0.86-0.286-1.694-0.451-2.503
	c0.207-0.083,0.445-0.124,0.715-0.124c0.249,0,0.436,0.046,0.56,0.14c0.125,0.093,0.229,0.254,0.312,0.481
	c0.269,0.788,0.569,1.467,0.901,2.037c0.331,0.57,0.715,1.036,1.15,1.399c0.436,0.362,0.938,0.627,1.508,0.792
	c0.57,0.167,1.229,0.249,1.975,0.249c0.643,0,1.191-0.088,1.647-0.265s0.829-0.41,1.119-0.7c0.29-0.291,0.508-0.634,0.653-1.028
	c0.145-0.395,0.218-0.799,0.218-1.215c0-0.893-0.254-1.593-0.762-2.102s-1.141-0.934-1.896-1.276
	c-0.757-0.343-1.576-0.664-2.456-0.966c-0.882-0.301-1.7-0.685-2.457-1.152c-0.757-0.467-1.389-1.069-1.896-1.806
	c-0.508-0.737-0.762-1.729-0.762-2.975c0-0.83,0.15-1.604,0.451-2.32c0.3-0.716,0.74-1.339,1.321-1.868
	c0.58-0.529,1.279-0.95,2.099-1.261c0.818-0.312,1.757-0.468,2.813-0.468c0.871,0,1.746,0.094,2.628,0.28
	c0.881,0.187,1.881,0.497,3,0.933c0.041,0.621,0.109,1.321,0.202,2.099C276.858,182.661,276.966,183.36,277.09,183.982z"/>
</svg>
